<?xml version="1.0" encoding="UTF-8" standalone="no"?>
<!-- Created with Inkscape (http://www.inkscape.org/) -->

<svg
   version="1.1"
   id="svg1"
   width="711.33624"
   height="1639.0101"
   viewBox="0 0 711.33624 1639.0101"
   sodipodi:docname="formal_conjectures_logo.svg"
   inkscape:version="1.4.2 (ebf0e940d0, 2025-05-08)"
   xmlns:inkscape="http://www.inkscape.org/namespaces/inkscape"
   xmlns:sodipodi="http://sodipodi.sourceforge.net/DTD/sodipodi-0.dtd"
   xmlns="http://www.w3.org/2000/svg"
   xmlns:svg="http://www.w3.org/2000/svg">
  <defs
     id="defs1" />
  <sodipodi:namedview
     id="namedview1"
     pagecolor="#ffffff"
     bordercolor="#000000"
     borderopacity="0.25"
     inkscape:showpageshadow="2"
     inkscape:pageopacity="0.0"
     inkscape:pagecheckerboard="true"
     inkscape:deskcolor="#d1d1d1"
     showgrid="false"
     inkscape:zoom="0.22247714"
     inkscape:cx="310.14423"
     inkscape:cy="1141.6904"
     inkscape:window-width="1536"
     inkscape:window-height="875"
     inkscape:window-x="0"
     inkscape:window-y="0"
     inkscape:window-maximized="1"
     inkscape:current-layer="g1" />
  <g
     inkscape:groupmode="layer"
     inkscape:label="Image"
     id="g1"
     transform="translate(-660.47901,-204.38143)">
    <path
       style="fill:#000000"
       d="m 821.5,1842.9731 c -11.31492,-1.6845 -17.23033,-9.7242 -25.83819,-35.1171 -14.23572,-41.9948 -18.73804,-79.6278 -14.57854,-121.856 2.82137,-28.6433 14.01952,-70.5999 24.13507,-90.428 2.28389,-4.4768 2.91459,-5.1742 7.78166,-8.6049 3.20017,-2.2558 4.35666,-2.4547 13.5,-2.3229 28.49599,0.411 78.43449,21.9529 122.07155,52.658 7.18935,5.0588 15.11069,10.8853 17.60299,12.9478 2.49229,2.0625 5.04102,3.75 5.66383,3.75 0.62282,0 3.79787,-1.3972 7.05567,-3.1049 9.64461,-5.0556 15.76705,-5.8783 41.10596,-5.5241 24.1983,0.3382 27.2812,0.8611 36.874,6.2534 l 4.7985,2.6974 10.4138,-7.4693 c 45.2974,-32.49 86.2833,-53.1702 119.9055,-60.5007 26.2531,-5.7239 32.553,-2.1795 42.0324,23.6482 14.445,39.3569 21.5117,85.1598 18.8681,122.2948 -1.6522,23.2086 -7.5284,51.6297 -16.0659,77.7052 -9.6702,29.5346 -15.6863,35.3833 -33.808,32.8677 -26.1023,-3.6235 -67.4353,-19.503 -96.8962,-37.2262 -5.1577,-3.1028 -9.5845,-5.6415 -9.8371,-5.6415 -0.8968,0 -22.8784,-14.8417 -28.7099,-19.3845 -3.2586,-2.5385 -6.3111,-4.6155 -6.7832,-4.6155 -0.4722,0 -3.0132,1.0919 -5.6466,2.4263 -9.7597,4.9456 -16.0275,5.929 -38.1454,5.985 -22.72464,0.057 -28.91808,-0.8425 -38.28974,-5.5636 -3.18436,-1.6041 -6.33436,-2.5871 -7,-2.1843 -0.66564,0.4028 -3.91026,2.8259 -7.21026,5.3845 -21.72262,16.8428 -55.93251,35.8885 -85,47.3222 -21.41752,8.4245 -49.12864,14.9237 -58,13.603 z m 22.63813,-39.4151 c 17.34539,-5.0655 27.639,-8.8935 40.75561,-15.1559 20.36115,-9.7213 43.403,-23.5797 60.59063,-36.4418 9.19833,-6.8835 9.4256,-7.1507 8.72991,-10.2639 -0.93472,-4.1829 -0.92537,-44.8257 0.0117,-50.9109 l 0.726,-4.7144 -8.226,-6.3839 c -15.42684,-11.9721 -47.88898,-32.619 -64.53307,-41.045 -13.37123,-6.7691 -36.52825,-15.5346 -45.30329,-17.1484 -4.06043,-0.7468 -3.55763,-1.4138 -7.54243,10.0062 -3.42727,9.8222 -7.95388,28.8948 -10.97556,46.245 -3.944,22.646 -3.87743,54.5657 0.15808,75.7999 5.00078,26.3133 13.16473,52.4551 16.38146,52.4551 0.47579,0 4.62792,-1.0989 9.22694,-2.442 z m 355.86217,2.192 c 2e-4,-0.1375 1.57,-4.6413 3.4885,-10.0085 6.0762,-16.9988 11.5438,-40.2615 13.5716,-57.7415 1.6772,-14.4583 0.6448,-46.1227 -1.9563,-60 -4.1709,-22.2528 -7.7821,-36.526 -13.2825,-52.5 -1.727,-5.0154 -2.2453,-4.9861 -21.0825,1.1904 -23.6257,7.7465 -52.9448,24.0248 -85.6528,47.5554 l -14.4137,10.3694 -0.086,30.5931 -0.086,30.5932 14,9.9334 c 31.8547,22.6018 63.0383,38.2861 95,47.7819 7.4014,2.1989 10.4996,2.8578 10.5003,2.2332 z m -159.7113,-60.0191 c 4.7692,-3.6405 5.0747,-5.5453 5.0902,-31.743 0.014,-24.3867 -0.7427,-27.615 -7.3792,-31.4601 -3.2129,-1.8615 -4.9677,-2.0068 -21.3918,-1.7718 -16.1909,0.2318 -18.21579,0.4564 -21.30102,2.3632 -6.72167,4.1542 -6.80718,4.5563 -6.80718,32.0143 0,23.4279 0.10829,24.868 2.07108,27.5435 4.27731,5.8302 6.9891,6.4328 27.50962,6.1128 18.5642,-0.2895 18.5839,-0.2923 22.2083,-3.0589 z M 921.5,1528.11 c -4.62763,-2.1358 -7.91663,-5.4219 -9.43339,-9.4251 -1.41872,-3.7444 -1.4265,-95.3052 -0.01,-115.8553 4.3952,-63.7568 18.42755,-114.6512 43.10241,-156.3296 12.0141,-20.2931 27.39319,-42.8124 35.59306,-52.1184 1.51127,-1.7151 7.54737,-8.7294 13.41352,-15.5871 11.68,-13.6543 24.1082,-26.8665 56.7169,-60.2945 28.3596,-29.0722 42.3946,-44.5485 53.052,-58.5 19.7006,-25.79 30.122,-48.0186 36.5833,-78.03144 2.2159,-10.29294 2.7103,-15.26038 2.8331,-28.46856 0.1661,-17.84602 -0.4289,-24.79766 -3.328,-38.88787 -6.8961,-33.51556 -25.7248,-64.63041 -49.9529,-82.54845 -20.049,-14.82732 -46.1576,-23.4147 -75.1947,-24.7323 -41.63381,-1.8892 -77.04444,9.93976 -102.97104,34.3976 C 895.87832,866.28053 880.3674,906.57449 878.30127,955 c -0.62502,14.64884 -1.92173,18.98297 -6.83601,22.84854 -5.73431,4.51061 -4.87065,4.47776 -102.93721,3.91554 -101.60805,-0.58253 -97.00414,-0.2961 -102.72516,-6.39092 -5.57666,-5.94101 -5.94753,-8.30295 -4.79463,-30.53557 1.33422,-25.7293 2.42937,-36.6611 5.59381,-55.83759 12.84289,-77.82798 38.00899,-131.83296 85.2487,-182.93874 14.45103,-15.6337 43.75741,-40.58749 56.48922,-48.09945 2.01292,-1.18765 3.65985,-2.52003 3.65985,-2.96085 0,-0.44081 -2.3625,-1.36459 -5.25,-2.05283 -9.24679,-2.204 -41.72516,-12.55424 -58.75,-18.72251 -37.15338,-13.46104 -46.07306,-18.86151 -47.56303,-28.79735 -0.92693,-6.1812 1.72289,-12.63656 6.90585,-16.82375 3.36744,-2.72047 4.6045,-3.10452 10,-3.10452 4.31485,0 7.50365,0.65856 10.65718,2.20095 7.97366,3.89992 18.16405,7.95355 33,13.12707 C 777.56424,606.60421 811.68017,617 814.0717,617 c 1.3699,0 1.77568,-2.77414 2.8157,-19.25 0.66833,-10.5875 1.42445,-21.05 1.68026,-23.25 0.52641,-4.52712 0.52594,-95.84032 -5.2e-4,-102 -0.18803,-2.2 -0.62813,-9.625 -0.978,-16.5 -0.34987,-6.875 -0.85583,-14.975 -1.12436,-18 -0.26852,-3.025 -1.18335,-13.375 -2.03294,-23 -3.00451,-34.03813 -7.29506,-64.39031 -14.41861,-102 -7.20792,-38.05514 -7.26769,-40.44546 -1.31788,-52.70279 4.13942,-8.5277 10.38693,-14.79556 19.16357,-19.22599 17.42304,-8.79513 70.75012,-23.75248 101.64108,-28.50862 26.32695,-4.05344 37.14809,-5.45497 47,-6.08731 32.467,-2.08391 41.5171,-2.35824 63,-1.90969 13.2,0.27562 25.575,0.67514 27.5,0.88783 1.925,0.21269 8,0.67665 13.5,1.03103 14.9093,0.96064 49.6555,6.18738 67.5,10.15375 23.3122,5.18171 65.0355,18.09015 77.4105,23.94941 7.0752,3.34996 15.9867,11.31041 18.7707,16.76747 3.1071,6.09052 5.8188,14.559 5.8188,18.17193 0,3.2736 -2.9047,21.31593 -5.4694,33.97298 -12.9705,64.0111 -21.0318,156.12296 -19.9098,227.5 0.4812,30.61938 2.8014,79.75554 3.8137,80.76786 0.353,0.35295 8.0326,-1.65353 21.5655,-5.63445 21.4055,-6.2968 59.1433,-20.29561 66,-24.48266 2.6343,-1.60862 5.1262,-2.13893 10.0744,-2.14401 5.6693,-0.006 7.0818,0.37987 10.2593,2.80119 9.8378,7.49674 10.1098,19.87677 0.6153,28.00372 -8.4346,7.21971 -66.743,28.7942 -98.1933,36.3322 -4.2593,1.02088 -7.7468,2.18209 -7.75,2.58047 0,0.39838 1.4568,1.47869 3.2443,2.40069 6.9872,3.60404 24.3919,17.52932 41.6703,33.33991 33.5789,30.72627 62.0994,72.11633 79.5393,115.43055 10.8536,26.95605 19.4167,58.61843 22.4757,83.10453 0.6184,4.95 1.3272,10.575 1.5751,12.5 2.3725,18.42396 3.0504,56.52942 1.3877,78 -3.226,41.6546 -12.506,78.7268 -29.4468,117.6355 -8.6434,19.8516 -19.6934,39.073 -35.5648,61.8645 -17.17,24.6565 -42.4692,53.0187 -87.8865,98.5271 -25.649,25.7005 -46.9922,50.062 -60.4274,68.9729 -28.5864,40.2371 -36.4952,75.0261 -36.5534,160.7898 -0.017,25.8184 -0.1854,28.614 -1.9219,32 -2.2967,4.4786 -5.6195,7.7065 -9.4124,9.1436 -1.9202,0.7275 -31.6425,1.0596 -93.5,1.0446 -86.02789,-0.021 -90.89032,-0.1167 -94.6849,-1.868 z M 1086.1186,1459 c 0.4928,-28.2748 1.062,-38.7564 2.7968,-51.5 5.0933,-37.4144 15.8654,-65.7637 37.0704,-97.5595 15.0808,-22.6129 29.0647,-38.5979 72.0864,-82.4028 59.5147,-60.598 79.5897,-85.2589 100.1576,-123.0377 20.3869,-37.4463 30.8337,-71.525 36.9393,-120.5 1.7308,-13.88347 1.7293,-60.13516 0,-74 -6.9499,-55.64355 -23.1715,-101.20861 -50.7313,-142.5 -11.1743,-16.74194 -19.3468,-26.5277 -36.3772,-43.5581 -17.2095,-17.20951 -27.1136,-25.47722 -43.5581,-36.36125 -16.1306,-10.6763 -19.3654,-12.66705 -27.6863,-17.03841 l -7.5335,-3.95776 -18.5896,3.27501 c -48.6437,8.5698 -109.7287,12.46066 -160.1906,10.20348 -42.53505,-1.90262 -68.53134,-4.58304 -104.30127,-10.75429 l -21.30128,-3.67502 -5.19872,2.70703 c -5.71438,2.97553 -7.92417,4.27977 -21.19873,12.51167 C 800.14038,704.64015 767.09665,737.64586 743.7433,775.5 722.91655,809.25872 710.47117,843.27534 702.58386,888 700.39925,900.38775 696,937.77268 696,943.94982 c 0,1.97232 0.7624,1.99705 65.75,2.13278 36.1625,0.0755 69.2375,0.29236 73.5,0.48185 7.42124,0.32992 7.75103,0.25102 7.77427,-1.85996 0.0981,-8.90946 3.38151,-29.46775 6.98768,-43.75183 13.04321,-51.66421 41.37766,-89.18908 83.41599,-110.47238 25.70617,-13.01461 51.05679,-18.54131 84.90756,-18.51074 50.3501,0.0455 90.4129,15.92892 122.0982,48.40745 32.6897,33.50811 50.0606,82.34301 48.2421,135.62301 -1.7033,49.9067 -16.9156,88.8773 -51.7281,132.5166 -11.57,14.5035 -18.6636,22.1921 -49.8713,54.0541 -54.458,55.5999 -68.9429,72.3492 -90.74296,104.9293 -15.10883,22.5801 -22.26924,36.7537 -29.83391,59.0547 -15.0874,44.4784 -20.37213,85.2696 -20.49064,158.1613 l -0.0475,29.2159 10.76931,0.2841 c 5.92311,0.1562 37.3193,0.284 69.7693,0.284 h 59 z M 1084,642.03795 c 34.3594,-3.18582 74.8025,-9.59933 95.2464,-15.10429 l 4.0382,-1.08738 -0.6305,-8.17314 c -0.3467,-4.49523 -1.148,-18.52314 -1.7806,-31.17314 -0.6327,-12.65 -1.3021,-23.17658 -1.4876,-23.39241 -0.1856,-0.21583 -6.9858,1.21603 -15.1116,3.1819 -13.5136,3.2693 -26.65,5.99293 -49.1533,10.19112 -44.8252,8.36257 -119.41854,9.6443 -172.621,2.96612 -17.10112,-2.1466 -54.50861,-8.96273 -71.36355,-13.00336 C 863.23649,564.54952 856.22015,563 855.54456,563 c -0.90278,0 -1.39857,4.83694 -1.87065,18.25 -0.35327,10.0375 -1.11622,24.0457 -1.69543,31.12934 -0.57922,7.08364 -0.88969,13.04278 -0.68993,13.24255 1.35385,1.35384 57.77508,11.24789 79.21145,13.89055 2.75,0.33901 6.125,0.7865 7.5,0.99442 4.34235,0.65661 41.13121,3.51275 50,3.8818 21.4209,0.89137 75.2494,-0.42671 96,-2.35071 z m -5,-96.92589 c 19.9059,-2.49165 47.1641,-7.01679 63.4824,-10.5387 14.6718,-3.16657 34.7927,-8.46872 35.645,-9.39298 0.3451,-0.37421 0.9289,-13.79593 1.2973,-29.82604 0.3684,-16.03012 0.8326,-30.20512 1.0315,-31.5 0.1988,-1.29489 0.645,-8.42934 0.9915,-15.85434 0.713,-15.28197 0.8325,-16.78195 3.583,-45 4.8134,-49.38184 10.7556,-88.77485 17.6185,-116.79971 2.2518,-9.19568 1.6228,-10.52197 -6.9101,-14.56916 -8.7193,-4.13555 -34.0318,-12.21242 -53.2391,-16.9878 -62.1848,-15.46061 -136.4586,-18.54617 -205,-8.51632 -18.17805,2.66005 -41.53039,7.23111 -53.5,10.47226 -14.87008,4.02654 -42.95892,13.16699 -48.75,15.86384 -5.79108,2.69686 -6.22268,3.93141 -4.20811,12.03689 0.5468,2.2 2.52806,12.1 4.40282,22 11.46603,60.54859 17.90556,123.08595 19.22006,186.65511 l 0.65458,31.65511 16.09032,4.21422 c 33.9949,8.90359 71.14904,15.46994 101.59033,17.95434 5.775,0.47131 28.275,0.70881 50,0.52777 32.4732,-0.2706 42.4352,-0.69656 56,-2.39449 z"
       id="path1" />
  </g>
</svg>
